<?xml version="1.0" encoding="UTF-8"?>
<!DOCTYPE svg PUBLIC "-//W3C//DTD SVG 1.1//EN" "http://www.w3.org/Graphics/SVG/1.1/DTD/svg11.dtd">
<svg xmlns="http://www.w3.org/2000/svg" version="1.1" width="1022px" height="828px" style="shape-rendering:geometricPrecision; text-rendering:geometricPrecision; image-rendering:optimizeQuality; fill-rule:evenodd; clip-rule:evenodd" xmlns:xlink="http://www.w3.org/1999/xlink">
<g><path style="opacity:0.995" fill="#fefefe" d="M 499.5,75.5 C 625.301,70.3346 727.134,116.668 805,214.5C 873.711,311.082 892.378,416.749 861,531.5C 826.236,638.594 757.069,714.094 653.5,758C 550.624,795.722 450.958,788.722 354.5,737C 259.661,680.418 201.828,597.585 181,488.5C 162.593,355.686 203.093,244.853 302.5,156C 359.896,109.314 425.562,82.4806 499.5,75.5 Z"/></g>
<g><path style="opacity:1" fill="#333333" d="M 528.5,198.5 C 559.894,197.434 580.394,211.767 590,241.5C 591.632,253.797 590.132,265.63 585.5,277C 586.667,278.167 587.833,279.333 589,280.5C 597.426,304.036 603.259,328.203 606.5,353C 605.886,357.85 605.219,362.684 604.5,367.5C 566.774,357.947 528.441,354.447 489.5,357C 481.195,358.164 472.862,358.997 464.5,359.5C 464.545,352.464 464.712,345.464 465,338.5C 456.381,333.548 449.381,326.881 444,318.5C 438.806,307.706 435.306,296.372 433.5,284.5C 437.846,284.334 442.179,284.501 446.5,285C 449.708,290.608 452.541,296.441 455,302.5C 459.675,307.578 465.175,310.578 471.5,311.5C 474.433,301.868 477.266,292.202 480,282.5C 482.069,279.613 484.236,276.946 486.5,274.5C 476.131,242.426 485.797,218.592 515.5,203C 520.002,201.635 524.336,200.135 528.5,198.5 Z"/></g>
<g><path style="opacity:1" fill="#fdfdfd" d="M 528.5,205.5 C 556.185,204.075 574.351,216.409 583,242.5C 584.469,253.033 583.302,263.2 579.5,273C 566.09,269.822 552.424,267.822 538.5,267C 540.423,259.923 537.756,256.923 530.5,258C 527.25,260.855 526.917,263.855 529.5,267C 517.768,267.451 506.268,269.284 495,272.5C 494.167,272.167 493.333,271.833 492.5,271.5C 483.612,237.933 495.612,215.933 528.5,205.5 Z"/></g>
<g><path style="opacity:1" fill="#353535" d="M 403.5,333.5 C 413.839,333.334 424.172,333.5 434.5,334C 443.437,334.641 451.27,337.807 458,343.5C 458.83,349.196 458.663,354.863 457.5,360.5C 445.005,361.878 433.005,365.044 421.5,370C 418.705,371.793 416.205,373.96 414,376.5C 412.424,382.388 412.091,388.388 413,394.5C 413.432,400.217 414.598,405.717 416.5,411C 405.581,411.123 397.081,406.623 391,397.5C 382.014,380.949 378.681,363.282 381,344.5C 382.663,342.083 384.829,340.25 387.5,339C 392.777,336.64 398.11,334.807 403.5,333.5 Z"/></g>
<g><path style="opacity:1" fill="#f9f9f9" d="M 404.5,337.5 C 420.434,336.502 436.101,338.002 451.5,342C 455.404,343.349 456.737,345.849 455.5,349.5C 450.78,353.018 445.447,354.851 439.5,355C 425.49,356.927 411.49,356.927 397.5,355C 393.392,353.973 389.392,352.64 385.5,351C 381.776,347.355 382.443,344.355 387.5,342C 393.42,340.915 399.086,339.415 404.5,337.5 Z"/></g>
<g><path style="opacity:1" fill="#333333" d="M 499.5,360.5 C 524.954,360.044 550.287,361.544 575.5,365C 584.905,367.018 594.239,369.351 603.5,372C 607.44,373.886 610.94,376.386 614,379.5C 614.345,420.982 596.845,452.482 561.5,474C 553.597,478.19 545.264,481.19 536.5,483C 484.119,490.229 446.619,470.063 424,422.5C 418.077,408.254 416.077,393.587 418,378.5C 426.21,372.536 435.377,368.703 445.5,367C 463.535,363.831 481.535,361.664 499.5,360.5 Z"/></g>
<g><path style="opacity:1" fill="#fdfdfd" d="M 480.5,368.5 C 510.549,367.91 540.549,368.743 570.5,371C 583.485,371.61 595.819,374.61 607.5,380C 608.833,382 608.833,384 607.5,386C 593.073,391.753 578.073,395.086 562.5,396C 528.803,398.242 495.136,397.909 461.5,395C 450.683,393.77 440.017,391.77 429.5,389C 426.898,388.117 424.731,386.617 423,384.5C 422.44,381.04 423.94,378.873 427.5,378C 433.332,375.723 439.332,374.056 445.5,373C 457.303,371.4 468.969,369.9 480.5,368.5 Z"/></g>
<g><path style="opacity:1" fill="#595959" d="M 629.5,445.5 C 630.665,443.584 632.332,442.751 634.5,443C 633.09,444.372 631.423,445.205 629.5,445.5 Z"/></g>
<g><path style="opacity:1" fill="#3b3b3b" d="M 653.5,441.5 C 655.842,441.775 655.842,442.608 653.5,444C 626.167,460.667 598.833,477.333 571.5,494C 569.664,496.493 568.664,499.326 568.5,502.5C 560.681,502.448 559.348,499.281 564.5,493C 594.557,476.312 624.223,459.145 653.5,441.5 Z"/></g>
<g><path style="opacity:1" fill="#3b3b3b" d="M 629.5,445.5 C 603.139,462.501 576.473,479.168 549.5,495.5C 548.451,498.08 547.784,500.746 547.5,503.5C 539.776,502.677 538.776,499.177 544.5,493C 572.888,477.142 601.221,461.309 629.5,445.5 Z"/></g>
<g><path style="opacity:1" fill="#343434" d="M 699.5,557.5 C 707.203,557.232 714.87,557.565 722.5,558.5C 726.733,560.692 730.233,563.692 733,567.5C 739.108,582.459 738.942,597.292 732.5,612C 737.595,622.449 742.595,632.949 747.5,643.5C 746.731,646.104 745.064,647.938 742.5,649C 741.056,649.781 739.723,649.614 738.5,648.5C 733.593,638.605 728.593,628.772 723.5,619C 717.545,619.304 711.545,619.471 705.5,619.5C 705.666,628.173 705.5,636.84 705,645.5C 702.019,649.373 699.019,649.373 696,645.5C 695.333,616.833 695.333,588.167 696,559.5C 697.302,558.915 698.469,558.249 699.5,557.5 Z"/></g>
<g><path style="opacity:1" fill="#323232" d="M 263.5,638.5 C 263.5,615.833 263.5,593.167 263.5,570.5C 257.167,570.5 250.833,570.5 244.5,570.5C 243.883,570.389 243.383,570.056 243,569.5C 242.502,566.183 242.335,562.85 242.5,559.5C 258.503,559.333 274.503,559.5 290.5,560C 291.833,563.333 291.833,566.667 290.5,570C 284.843,570.499 279.176,570.666 273.5,570.5C 273.667,595.836 273.5,621.169 273,646.5C 269.943,647.451 266.777,647.784 263.5,647.5C 263.5,644.5 263.5,641.5 263.5,638.5 Z"/></g>
<g><path style="opacity:1" fill="#373737" d="M 490.5,559.5 C 493.448,559.223 496.281,559.556 499,560.5C 500.245,580.467 500.912,600.467 501,620.5C 501.739,624.385 503.073,628.052 505,631.5C 507.627,635.153 510.96,636.153 515,634.5C 516.092,629.86 517.092,625.193 518,620.5C 518.228,600.48 518.728,580.48 519.5,560.5C 522.493,559.865 525.493,559.699 528.5,560C 529.249,561.734 529.749,563.567 530,565.5C 530.667,587.833 530.667,610.167 530,632.5C 527.831,636.351 525.664,640.185 523.5,644C 512.582,651.282 503.082,649.782 495,639.5C 493.036,635.769 491.703,631.769 491,627.5C 489.209,604.803 489.042,582.136 490.5,559.5 Z"/></g>
<g><path style="opacity:1" fill="#373737" d="M 544.5,558.5 C 546.833,558.5 549.167,558.5 551.5,558.5C 551.5,585.167 551.5,611.833 551.5,638.5C 560.494,638.034 569.494,637.7 578.5,637.5C 578.5,640.833 578.5,644.167 578.5,647.5C 566.175,648.346 553.842,648.513 541.5,648C 540.874,647.25 540.374,646.416 540,645.5C 541.281,618.012 541.948,590.345 542,562.5C 542.48,560.867 543.313,559.534 544.5,558.5 Z"/></g>
<g><path style="opacity:1" fill="#323232" d="M 607.5,631.5 C 607.5,611.167 607.5,590.833 607.5,570.5C 601.167,570.5 594.833,570.5 588.5,570.5C 587.028,568.883 586.361,566.883 586.5,564.5C 586.551,562.9 586.884,561.4 587.5,560C 603.408,559.176 619.241,559.343 635,560.5C 637.036,563.896 636.869,567.062 634.5,570C 628.843,570.499 623.176,570.666 617.5,570.5C 617.5,596.167 617.5,621.833 617.5,647.5C 614.167,647.5 610.833,647.5 607.5,647.5C 607.5,642.167 607.5,636.833 607.5,631.5 Z"/></g>
<g><path style="opacity:1" fill="#363636" d="M 645.5,559.5 C 648.448,559.223 651.281,559.556 654,560.5C 655.186,580.81 655.853,601.144 656,621.5C 657.077,626.823 659.577,631.323 663.5,635C 665.769,635.758 667.936,635.591 670,634.5C 670.414,630.344 671.414,626.344 673,622.5C 673.333,603.167 673.667,583.833 674,564.5C 674.909,561.056 677.243,559.389 681,559.5C 682.107,559.585 683.107,559.919 684,560.5C 684.667,584.5 684.667,608.5 684,632.5C 679.243,647.721 669.743,651.888 655.5,645C 652.628,642.463 650.128,639.63 648,636.5C 646.411,630.557 645.078,624.557 644,618.5C 643.105,598.738 643.605,579.071 645.5,559.5 Z"/></g>
<g><path style="opacity:1" fill="#343434" d="M 312.5,616.5 C 311.509,623.313 311.175,630.313 311.5,637.5C 320.5,637.5 329.5,637.5 338.5,637.5C 338.5,640.5 338.5,643.5 338.5,646.5C 326.5,646.5 314.5,646.5 302.5,646.5C 301.631,618.173 301.131,589.84 301,561.5C 313.754,560.511 326.587,560.178 339.5,560.5C 340.573,563.721 340.573,566.888 339.5,570C 330.256,570.181 321.089,570.681 312,571.5C 311.5,583.162 311.333,594.829 311.5,606.5C 319.753,604.741 328.086,603.908 336.5,604C 339.1,606.459 339.1,608.959 336.5,611.5C 328.478,613.168 320.478,614.835 312.5,616.5 Z"/></g>
<g><path style="opacity:1" fill="#343434" d="M 372.5,559.5 C 380.39,560.198 386.557,563.864 391,570.5C 394.767,581.511 396.267,592.844 395.5,604.5C 399.167,604.5 402.833,604.5 406.5,604.5C 406.82,607.898 406.487,611.232 405.5,614.5C 402.242,615.417 398.909,615.751 395.5,615.5C 395.612,625.53 395.112,635.53 394,645.5C 391.624,647.744 388.957,648.077 386,646.5C 384.714,636.879 384.214,627.212 384.5,617.5C 378.441,617.699 372.441,618.366 366.5,619.5C 366.666,626.841 366.5,634.174 366,641.5C 365.727,643.101 365.227,644.601 364.5,646C 361.571,646.777 358.737,646.61 356,645.5C 355.5,637.507 355.334,629.507 355.5,621.5C 351.818,621.665 348.152,621.499 344.5,621C 343.167,618.333 343.167,615.667 344.5,613C 348.191,612.58 351.858,612.08 355.5,611.5C 355.333,599.495 355.5,587.495 356,575.5C 358.207,566.455 363.707,561.122 372.5,559.5 Z"/></g>
<g><path style="opacity:1" fill="#333333" d="M 767.5,570.5 C 766.171,576.128 765.504,582.128 765.5,588.5C 765.5,594.676 765.834,600.676 766.5,606.5C 774.202,605.352 781.868,604.019 789.5,602.5C 792.923,605.42 793.256,608.587 790.5,612C 782.37,613.014 774.37,614.514 766.5,616.5C 766.5,623.5 766.5,630.5 766.5,637.5C 775.5,637.5 784.5,637.5 793.5,637.5C 793.777,640.448 793.444,643.281 792.5,646C 780.819,646.833 769.152,646.666 757.5,645.5C 756.807,618.863 756.14,592.196 755.5,565.5C 755.551,563.9 755.884,562.4 756.5,561C 768.833,560.333 781.167,560.333 793.5,561C 794.451,564.057 794.784,567.223 794.5,570.5C 785.5,570.5 776.5,570.5 767.5,570.5 Z"/></g>
<g><path style="opacity:1" fill="#373737" d="M 452.5,561.5 C 469.731,558.072 478.065,565.072 477.5,582.5C 477.132,588.178 476.632,593.845 476,599.5C 472.943,600.451 469.777,600.784 466.5,600.5C 466.666,591.827 466.5,583.16 466,574.5C 464.872,572.01 462.872,571.01 460,571.5C 457.128,571.01 455.128,572.01 454,574.5C 453.703,577.914 453.036,581.247 452,584.5C 451.333,599.833 451.333,615.167 452,630.5C 453.976,638.591 458.642,640.591 466,636.5C 466.063,628.397 466.73,620.397 468,612.5C 471.125,611.213 474.291,611.213 477.5,612.5C 478.981,622.694 478.147,632.694 475,642.5C 471.912,647.211 467.578,649.211 462,648.5C 450.113,648.945 443.446,643.278 442,631.5C 441.333,615.5 441.333,599.5 442,583.5C 442.849,578.422 444.015,573.422 445.5,568.5C 447.521,565.812 449.854,563.479 452.5,561.5 Z"/></g>
<g><path style="opacity:1" fill="#fafafa" d="M 705.5,568.5 C 710.179,568.334 714.845,568.501 719.5,569C 720.667,570.167 721.833,571.333 723,572.5C 726.681,581.964 727.348,591.631 725,601.5C 724.193,604.973 722.027,607.14 718.5,608C 714.179,608.499 709.846,608.666 705.5,608.5C 705.5,595.167 705.5,581.833 705.5,568.5 Z"/></g>
<g><path style="opacity:1" fill="#fafafa" d="M 370.5,572.5 C 376.73,572.211 380.563,575.211 382,581.5C 384.282,589.651 385.115,597.984 384.5,606.5C 378.501,607.5 372.501,608.5 366.5,609.5C 365.631,596.872 366.964,584.539 370.5,572.5 Z"/></g>
<g><path style="opacity:1" fill="#9d9d9d" d="M 244.5,570.5 C 250.833,570.5 257.167,570.5 263.5,570.5C 263.5,593.167 263.5,615.833 263.5,638.5C 262.503,616.34 262.169,594.006 262.5,571.5C 256.31,571.823 250.31,571.49 244.5,570.5 Z"/></g>
<g><path style="opacity:1" fill="#a3a3a3" d="M 588.5,570.5 C 594.833,570.5 601.167,570.5 607.5,570.5C 607.5,590.833 607.5,611.167 607.5,631.5C 606.503,611.674 606.17,591.674 606.5,571.5C 600.31,571.823 594.31,571.49 588.5,570.5 Z"/></g>
<g><path style="opacity:1" fill="#707070" d="M 767.5,570.5 C 766.521,582.42 766.188,594.42 766.5,606.5C 765.834,600.676 765.5,594.676 765.5,588.5C 765.504,582.128 766.171,576.128 767.5,570.5 Z"/></g>
<g><path style="opacity:1" fill="#a3a3a3" d="M 312.5,616.5 C 312.5,623.167 312.5,629.833 312.5,636.5C 321.349,636.174 330.016,636.507 338.5,637.5C 329.5,637.5 320.5,637.5 311.5,637.5C 311.175,630.313 311.509,623.313 312.5,616.5 Z"/></g>
</svg>
